<svg height="511pt" viewBox="-124 0 511 511.9998" width="511pt" xmlns="http://www.w3.org/2000/svg"><path d="m58.402344 512c-14.167969 0-25.652344-11.484375-25.652344-25.652344v-205.058594c0-14.167968 11.484375-25.65625 25.652344-25.65625 14.167968 0 25.65625 11.488282 25.65625 25.65625v205.054688c0 14.171875-11.488282 25.65625-25.65625 25.65625zm0 0" fill="#ffb69e"/><path d="m111.144531 487.4375-4.492187-105.429688-24.941406-94.148437c-3.628907-13.699219 4.53125-27.742187 18.226562-31.371094 13.703125-3.628906 27.742188 4.535157 31.371094 18.230469l25.65625 96.839844c.472656 1.792968.75 3.628906.832031 5.480468l4.609375 108.214844c.601562 14.15625-10.382812 26.117188-24.539062 26.722656-14.160157.601563-26.121094-10.382812-26.722657-24.539062zm0 0" fill="#ffb69e"/><path d="m164.925781 263.378906c19.964844-13.179687 26.460938-44.667968 14.1875-74.40625-6.125-14.839844-15.878906-26.675781-27.023437-34.238281l-16.570313-52.078125c-2.394531-13.082031-13-22.539062-25.332031-22.539062-15.875 0-27.042969 0-44.664062 0-12.355469 0-22.933594 9.429687-25.332032 22.539062l-39.484375 215.785156c-.6367185 3.484375.203125 7.097656 2.289063 9.84375 2.082031 2.746094 5.195312 4.351563 8.480468 4.351563h152.757813c3.285156 0 6.402344-1.59375 8.484375-4.34375 2.085938-2.75 2.921875-6.363281 2.285156-9.851563zm0 0" fill="#ff6473"/><path d="m58.085938 273.464844-28.019532-87.296875c-1.695312-5.277344-1.132812-11.019531 1.550782-15.863281l12.4375-22.457032 27.972656-8.605468 7.46875 27.503906-8.542969 15.417968 25.367187 79.027344c3.390626 10.558594-2.421874 21.863282-12.980468 25.253906-10.558594 3.386719-21.863282-2.421874-25.253906-12.980468zm0 0" fill="#ffb69e"/><path d="m97.382812 93.015625c-9.699218-5.375-21.917968-1.867187-27.292968 7.832031l-26.035156 47 35.441406 18.898438 25.722656-46.4375c5.371094-9.703125 1.863281-21.921875-7.835938-27.292969zm0 0" fill="#f5415f"/><g fill="#a5c8cd"><path d="m254.636719 220.316406h-38.460938c-4.46875 0-8.085937-3.621094-8.085937-8.085937 0-4.464844 3.617187-8.085938 8.085937-8.085938h38.460938c4.464843 0 8.085937 3.621094 8.085937 8.085938 0 4.464843-3.621094 8.085937-8.085937 8.085937zm0 0"/><path d="m201.328125 187.554688c-2.078125 0-4.15625-.792969-5.734375-2.386719-3.148438-3.167969-3.132812-8.289063.035156-11.4375l28.28125-28.089844c3.167969-3.144531 8.289063-3.128906 11.4375.039063 3.144532 3.167968 3.128906 8.289062-.039062 11.4375l-28.28125 28.089843c-1.578125 1.566407-3.636719 2.347657-5.699219 2.347657zm0 0"/><path d="m229.609375 281.171875c-2.0625 0-4.121094-.785156-5.699219-2.351563l-28.28125-28.089843c-3.167968-3.148438-3.183594-8.269531-.035156-11.4375s8.265625-3.183594 11.433594-.039063l28.28125 28.09375c3.167968 3.144532 3.183594 8.265625.039062 11.4375-1.582031 1.589844-3.660156 2.386719-5.738281 2.386719zm0 0"/></g><path d="m165.933594 40.96875s-.011719-.015625-.011719-.015625c-1.195313-19.960937-16.082031-37.125-36.644531-40.402344-23.769532-3.789062-46.101563 12.40625-49.894532 36.171875-.003906 0-.003906.003906-.007812.007813 0 .019531-.003906.039062-.007812.058593 0 .019532-.007813.039063-.011719.058594h.003906c-3.714844 23.726563 12.46875 46 36.199219 49.78125 23.769531 3.789063 46.113281-12.410156 49.898437-36.179687.511719-3.199219.476563-9.480469.476563-9.480469zm0 0" fill="#ffb69e"/></svg>