<svg height="512pt" viewBox="-160 0 512 512" width="512pt" xmlns="http://www.w3.org/2000/svg"><g fill="#ffb69e"><path d="m122.417969 33.097656s-.015625-.011718-.015625-.011718c-4.1875-18.925782-21.054688-33.085938-41.242188-33.085938-23.328125 0-42.238281 18.910156-42.242187 42.238281 0 .003907-.003907.007813-.003907.007813v.058594.058593h.003907c.0625 23.277344 18.949219 42.132813 42.242187 42.132813 23.335938 0 42.25-18.917969 42.25-42.25 0-3.140625-.992187-9.148438-.992187-9.148438zm0 0"/><path d="m55.214844 512c-13.507813 0-24.460938-10.953125-24.460938-24.460938v-195.527343c0-13.507813 10.953125-24.460938 24.460938-24.460938 13.511718 0 24.460937 10.953125 24.460937 24.460938v195.527343c0 13.507813-10.949219 24.460938-24.460937 24.460938zm0 0"/><path d="m129.925781 512c-13.03125 0-23.863281-10.277344-24.425781-23.421875l-4.28125-100.527344-23.78125-89.773437c-3.460938-13.058594 4.324219-26.449219 17.382812-29.910156 13.058594-3.457032 26.449219 4.324218 29.910157 17.382812l24.460937 92.339844c.453125 1.707031.71875 3.457031.792969 5.222656l4.398437 103.1875c.574219 13.496094-9.902343 24.902344-23.398437 25.480469-.355469.011719-.710937.019531-1.058594.019531zm0 0"/></g><path d="m185.769531 223.761719c-9.753906-23.628907-27.78125-40.417969-46.785156-46.117188l-10.238281-55.960937c-2.285156-12.476563-12.398438-21.492188-24.15625-21.492188-15.136719 0-25.785156 0-42.589844 0-11.78125 0-21.867188 8.992188-24.152344 21.492188l-37.648437 205.753906c-.609375 3.324219.191406 6.769531 2.179687 9.386719 1.988282 2.621093 4.957032 4.148437 8.089844 4.148437h145.65625c3.132812 0 6.101562-1.519531 8.089844-4.140625 1.988281-2.621093 2.785156-6.066406 2.179687-9.394531l-3.203125-17.488281c27.398438-11.492188 37.511719-50.011719 22.578125-86.1875zm0 0" fill="#ff6473"/><path d="m26.507812 202.789062c-7.261718 0-13.945312-4.117187-17.179687-10.699218-3.414063-6.941406-2.308594-15.261719 2.796875-21.074219l19.128906-21.785156 29.636719-5.316407 10.445313 17.699219 33.246093-2.113281c10.542969-.679688 19.652344 7.335938 20.324219 17.890625.667969 10.550781-7.339844 19.648437-17.894531 20.320313l-79.285157 5.042968c-.40625.023438-.816406.035156-1.21875.035156zm0 0" fill="#ffb69e"/><path d="m38.914062 140.507812 22.703126-25.855468c6.976562-7.945313 19.070312-8.730469 27.019531-1.753906 7.945312 6.976562 8.730469 19.074218 1.75 27.015624l-19.050781 21.699219-20.675782.949219-19.40625-13.332031zm0 0" fill="#f5415f"/><path d="m138.796875 220.921875c-6.070313 0-11.320313 3.5-13.851563 8.589844-2.53125-5.089844-7.78125-8.589844-13.855468-8.589844-8.539063 0-15.460938 6.921875-15.460938 15.460937 0 17.753907 29.316406 36.34375 29.316406 36.34375s29.316407-17.441406 29.316407-36.34375c0-8.539062-6.925781-15.460937-15.464844-15.460937zm0 0" fill="#cd2846"/></svg>