<?xml version="1.0" encoding="iso-8859-1"?>
<!-- Generator: Adobe Illustrator 19.0.0, SVG Export Plug-In . SVG Version: 6.00 Build 0)  -->
<svg version="1.1" id="Capa_1" xmlns="http://www.w3.org/2000/svg" xmlns:xlink="http://www.w3.org/1999/xlink" x="0px" y="0px"
	 viewBox="0 0 512 512" style="enable-background:new 0 0 512 512;" xml:space="preserve">
<circle style="fill:#72F2EB;" cx="146.34" cy="145.028" r="122.77"/>
<g>
	<path style="fill:#B0D1CF;" d="M34.916,172.291c-1.919,0-3.839-0.732-5.304-2.196c-2.929-2.93-2.929-7.678,0-10.607l54.276-54.276
		c2.93-2.928,7.678-2.928,10.607,0c2.929,2.93,2.929,7.678,0,10.607L40.22,170.094C38.755,171.558,36.835,172.291,34.916,172.291z"
		/>
	<path style="fill:#B0D1CF;" d="M166.628,172.71c-1.92,0-3.839-0.732-5.304-2.196l-54.694-54.696c-2.929-2.93-2.929-7.678,0-10.607
		c2.931-2.928,7.679-2.928,10.607,0l54.694,54.695c2.929,2.93,2.929,7.678,0,10.607C170.467,171.977,168.547,172.71,166.628,172.71z
		"/>
	<path style="fill:#B0D1CF;" d="M196.724,177.468c-1.92,0-3.839-0.732-5.304-2.196c-2.929-2.93-2.929-7.678,0-10.607l82.024-82.023
		c2.931-2.929,7.679-2.927,10.607,0c2.929,2.93,2.929,7.678,0,10.607l-82.024,82.023
		C200.563,176.736,198.643,177.468,196.724,177.468z"/>
	<path style="fill:#B0D1CF;" d="M346.46,137.292c-1.919,0-3.839-0.732-5.304-2.196l-44.788-44.788c-2.929-2.93-2.929-7.678,0-10.607
		c2.93-2.928,7.678-2.928,10.607,0l44.788,44.788c2.929,2.93,2.929,7.678,0,10.607C350.299,136.559,348.379,137.292,346.46,137.292z
		"/>
</g>
<circle style="fill:#F9B767;" cx="23.57" cy="176.168" r="16.07"/>
<path style="fill:#EF9D45;" d="M23.57,199.741c-12.997,0-23.57-10.573-23.57-23.57s10.573-23.57,23.57-23.57
	s23.57,10.573,23.57,23.57S36.567,199.741,23.57,199.741z M23.57,167.6c-4.726,0-8.57,3.845-8.57,8.57s3.845,8.57,8.57,8.57
	s8.57-3.845,8.57-8.57S28.296,167.6,23.57,167.6z"/>
<circle style="fill:#F9B767;" cx="101" cy="98.738" r="16.07"/>
<path style="fill:#EF9D45;" d="M100.999,122.312c-12.997,0-23.57-10.573-23.57-23.57c0-12.996,10.573-23.569,23.57-23.569
	c12.996,0,23.569,10.573,23.569,23.569C124.568,111.739,113.995,122.312,100.999,122.312z M100.999,90.172
	c-4.726,0-8.57,3.844-8.57,8.569c0,4.725,3.845,8.57,8.57,8.57s8.569-3.845,8.569-8.57
	C109.568,94.016,105.725,90.172,100.999,90.172z"/>
<circle style="fill:#F9B767;" cx="183.12" cy="180.858" r="16.07"/>
<path style="fill:#EF9D45;" d="M183.117,204.431c-12.997,0-23.57-10.573-23.57-23.57s10.573-23.57,23.57-23.57
	s23.57,10.573,23.57,23.57S196.114,204.431,183.117,204.431z M183.117,172.291c-4.726,0-8.57,3.845-8.57,8.57s3.845,8.57,8.57,8.57
	s8.57-3.845,8.57-8.57S187.843,172.291,183.117,172.291z"/>
<circle style="fill:#F9B767;" cx="289.76" cy="74.218" r="16.07"/>
<path style="fill:#EF9D45;" d="M289.758,97.791c-12.997,0-23.57-10.573-23.57-23.57s10.573-23.57,23.57-23.57
	s23.57,10.573,23.57,23.57S302.755,97.791,289.758,97.791z M289.758,65.65c-4.726,0-8.57,3.845-8.57,8.57
	c0,4.725,3.845,8.57,8.57,8.57s8.57-3.845,8.57-8.57C298.328,69.495,294.483,65.65,289.758,65.65z"/>
<circle style="fill:#F9B767;" cx="360.56" cy="145.028" r="16.07"/>
<path style="fill:#EF9D45;" d="M360.564,168.597c-12.997,0-23.57-10.573-23.57-23.57s10.573-23.57,23.57-23.57
	s23.57,10.573,23.57,23.57S373.562,168.597,360.564,168.597z M360.564,136.457c-4.726,0-8.57,3.845-8.57,8.57s3.845,8.57,8.57,8.57
	s8.57-3.845,8.57-8.57S365.29,136.457,360.564,136.457z"/>
<g>
	<path style="fill:#FF6A66;" d="M123.433,482.243H79.474v-115.66c0-4.418,3.582-8,8-8h27.959c4.418,0,8,3.582,8,8V482.243z"/>
	<path style="fill:#FF6A66;" d="M197.487,482.243h-43.959v-115.66c0-4.418,3.582-8,8-8h27.959c4.418,0,8,3.582,8,8V482.243z"/>
</g>
<path style="fill:#F9B767;" d="M271.542,482.243h-43.959V329.999c0-4.418,3.582-8,8-8h27.959c4.418,0,8,3.582,8,8V482.243z"/>
<g>
	<path style="fill:#72F2EB;" d="M345.596,482.243h-43.958V275.472c0-4.418,3.582-8,8-8h27.958c4.418,0,8,3.582,8,8V482.243z"/>
	<path style="fill:#72F2EB;" d="M419.651,482.243h-43.958V219.075c0-4.418,3.582-8,8-8h27.958c4.418,0,8,3.582,8,8V482.243z"/>
	<path style="fill:#72F2EB;" d="M493.705,482.243h-43.958V153.027c0-4.418,3.582-8,8-8h27.958c4.418,0,8,3.582,8,8V482.243z"/>
</g>
<path style="fill:#B0D1CF;" d="M504.5,489.742H14.509c-4.143,0-7.5-3.357-7.5-7.5s3.357-7.5,7.5-7.5H504.5
	c4.143,0,7.5,3.357,7.5,7.5S508.643,489.742,504.5,489.742z"/>
<g>
	<path style="fill:#72F2EB;" d="M493.705,43.671c-4.143,0-7.5-3.357-7.5-7.5v-1.649c0-4.143,3.357-7.5,7.5-7.5s7.5,3.357,7.5,7.5
		v1.649C501.205,40.313,497.848,43.671,493.705,43.671z"/>
	<path style="fill:#72F2EB;" d="M468.169,43.671c-4.143,0-7.5-3.357-7.5-7.5v-1.649c0-4.143,3.357-7.5,7.5-7.5s7.5,3.357,7.5,7.5
		v1.649C475.669,40.313,472.312,43.671,468.169,43.671z"/>
</g>
<g>
	<path style="fill:#B0D1CF;" d="M493.521,73.587h-25.353c-4.143,0-7.5-3.357-7.5-7.5c0-4.143,3.357-7.5,7.5-7.5h25.353
		c4.143,0,7.5,3.357,7.5,7.5C501.021,70.23,497.664,73.587,493.521,73.587z"/>
	<path style="fill:#B0D1CF;" d="M493.521,97.791h-67.605c-4.143,0-7.5-3.357-7.5-7.5c0-4.143,3.357-7.5,7.5-7.5h67.605
		c4.143,0,7.5,3.357,7.5,7.5C501.021,94.434,497.664,97.791,493.521,97.791z"/>
</g>
<g>
</g>
<g>
</g>
<g>
</g>
<g>
</g>
<g>
</g>
<g>
</g>
<g>
</g>
<g>
</g>
<g>
</g>
<g>
</g>
<g>
</g>
<g>
</g>
<g>
</g>
<g>
</g>
<g>
</g>
</svg>
