<svg id="Capa_1" enable-background="new 0 0 512 512" height="512" viewBox="0 0 512 512" width="512" xmlns="http://www.w3.org/2000/svg"><g><g><g><circle cx="465.259" cy="186.344" fill="#ffdfcf" r="46.741"/></g><g><path d="m478.259 219.395c-18.253-18.253-18.253-47.848 0-66.102 3.057-3.057 6.438-5.59 10.025-7.624-17.829-10.105-40.88-7.572-56.076 7.624-18.254 18.253-18.254 47.848 0 66.102 15.196 15.196 38.247 17.729 56.076 7.624-3.587-2.034-6.967-4.567-10.025-7.624z" fill="#ffcebf"/></g></g><g><g><circle cx="297.348" cy="59.3" fill="#ffdfcf" r="37.393"/></g><g><path d="m308.255 85.741c-14.603-14.603-14.603-38.279 0-52.881 2.374-2.374 4.991-4.356 7.767-5.958-14.298-8.252-32.886-6.271-45.115 5.958-14.603 14.603-14.603 38.279 0 52.881 12.229 12.229 30.817 14.21 45.115 5.958-2.776-1.603-5.393-3.584-7.767-5.958z" fill="#ffcebf"/></g></g><g><g><circle cx="388.975" cy="96.839" fill="#ffdfcf" r="37.393"/></g><g><path d="m399.881 123.28c-14.603-14.603-14.603-38.279 0-52.881 2.374-2.374 4.991-4.356 7.767-5.958-14.298-8.252-32.886-6.271-45.115 5.958-14.603 14.603-14.603 38.279 0 52.881 12.229 12.229 30.817 14.21 45.115 5.958-2.776-1.603-5.392-3.584-7.767-5.958z" fill="#ffcebf"/></g></g><g><g><circle cx="205.462" cy="59.3" fill="#ffdfcf" r="27.581"/></g><g><path d="m213.506 78.802c-10.771-10.771-10.771-28.234 0-39.005 1.751-1.751 3.681-3.213 5.729-4.394-10.546-6.087-24.256-4.625-33.276 4.394-10.771 10.771-10.771 28.234 0 39.005 9.02 9.02 22.731 10.481 33.276 4.394-2.047-1.181-3.977-2.642-5.729-4.394z" fill="#ffcebf"/></g></g><g><path d="m328.832 353.394c53.581-53.581 53.098-140.753-1.451-193.728-52.909-51.383-138.081-50.91-190.445 1.028-16.951 16.813-28.542 36.97-34.776 58.358-7.837 26.886-24.96 50.312-48.886 64.867-7.558 4.597-14.685 10.179-21.199 16.744-43.213 43.553-42.69 114.74 1.13 157.682 43.469 42.598 113.239 42.329 156.375-.807 6.496-6.496 12.019-13.596 16.57-21.119 14.3-23.641 37.291-40.847 63.867-48.404 21.537-6.125 41.858-17.664 58.815-34.621z" fill="#ffdfcf"/></g><g><path d="m264.187 389.854c-24.201-5.471-47.198-17.619-66.039-36.46-53.102-53.102-53.102-139.196 0-192.298 18.587-18.587 41.217-30.658 65.058-36.233-44.011-10.018-92.117 1.957-126.27 35.832-16.951 16.813-28.542 36.97-34.776 58.359-7.837 26.886-24.96 50.312-48.886 64.867-7.558 4.598-14.686 10.179-21.199 16.744-43.213 43.553-42.69 114.74 1.13 157.682 43.468 42.598 113.239 42.329 156.375-.807 6.496-6.496 12.019-13.596 16.57-21.119 13.243-21.895 33.942-38.264 58.037-46.567z" fill="#ffcebf"/></g><g><g><g><ellipse cx="191.272" cy="190.901" fill="#fda0c1" rx="22.389" ry="28.114" transform="matrix(.707 -.707 .707 .707 -78.965 191.165)"/></g><g><ellipse cx="299.026" cy="298.655" fill="#fda0c1" rx="22.389" ry="28.114" transform="matrix(.707 -.707 .707 .707 -123.599 298.915)"/></g></g><g><path d="m218.098 194.748c-1.919 0-3.839-.732-5.303-2.196-2.93-2.929-2.93-7.678-.001-10.606l8.126-8.127c2.931-2.93 7.68-2.929 10.606-.001 2.93 2.929 2.93 7.678.001 10.606l-8.126 8.127c-1.464 1.465-3.384 2.197-5.303 2.197z" fill="#6e6e6e"/></g><g><path d="m302.68 279.33c-1.919 0-3.839-.732-5.303-2.196-2.93-2.929-2.93-7.678-.001-10.606l8.126-8.127c2.931-2.93 7.68-2.929 10.606-.001 2.93 2.929 2.93 7.678.001 10.606l-8.126 8.127c-1.464 1.465-3.384 2.197-5.303 2.197z" fill="#6e6e6e"/></g><g><path d="m270.337 247.996c-7.515 0-14.746-2.973-20.09-8.317-5.805-5.805-8.812-13.84-8.249-22.045.283-4.133 3.863-7.261 7.996-6.969 4.132.283 7.252 3.863 6.969 7.996-.266 3.878 1.152 7.673 3.892 10.411 2.739 2.74 6.543 4.153 10.411 3.892 4.12-.279 7.713 2.836 7.997 6.968.284 4.133-2.836 7.713-6.968 7.997-.653.045-1.308.067-1.958.067z" fill="#6e6e6e"/></g></g></g></svg>