<svg height="512" viewBox="0 0 58 50" width="512" xmlns="http://www.w3.org/2000/svg"><g id="Page-1" fill="none" fill-rule="evenodd"><g id="029---Baby-Weight" fill-rule="nonzero" transform="translate(0 -1)"><path id="Shape" d="m46 33h-32c-3.4345572-.0078517-6.56521536-1.9697834-8.06983852-5.0572344-1.50462315-3.0874511-1.12086032-6.7620834.98921823-9.4720305s5.57855269-3.9826938 8.94062029-3.2807351l-8.4-3.5c-1.97495518-.8893099-2.88327936-3.18902407-2.04906961-5.18787729.83420974-1.99885323 3.10785526-2.97059086 5.12906961-2.19212271l12 5c1.7910893.7443565 2.7900604 2.6664275 2.37 4.56l-.28 1.26h.37c-.0189911-.6647045.1252154-1.323934.42-1.92l5-10c.9885897-1.9771794 3.3928206-2.7785897 5.37-1.79s2.7785897 3.3928206 1.79 5.37l-3.9 7.79 1.88 2.5 1.34 1.79z" fill="#fdd7ad"/><path id="Shape" d="m46 33h-6.63c-5.254149-3.4823689-6.9183746-10.4362985-3.81-15.92l1.34 1.79z" fill="#f9c795"/><path id="Shape" d="m30.8 22.4-4.2-5.6c-.3674551-.4966695-.5765616-1.0926229-.6-1.71-.0207097-.5308217-.4555223-.9513276-.9867397-.9542729-.5312174-.0029452-.9706659.4127134-.9972603.9432729l-1.711 7.7c-.1197472.5390126.2200276 1.0730722.759 1.193.0715992.0157735.1446841.0238196.218.024.4686077-.0000804.8743121-.3255585.976-.783l1.064-4.789 3.878 5.176c.3313708.4418278.9581722.5313708 1.4.2s.5313708-.9581722.2-1.4z" fill="#f9c795"/><path id="Shape" d="m13 30c-.1073885.0000777-.2140884-.0171429-.316-.051-2.5846797-.9043444-4.41130981-3.2242894-4.684-5.949 0-.5522847.44771525-1 1-1s1 .4477153 1 1c.2677035 1.8611644 1.5444128 3.4208596 3.316 4.051.465753.1547317.7503816.6245882.6718345 1.1090447-.0785471.4844566-.4970518.840311-.9878345.8399553z" fill="#f5efca"/><circle id="Oval" cx="46" cy="23" fill="#fdd7ad" r="10"/><path id="Shape" d="m12 47h34v2c0 1.1045695-.8954305 2-2 2h-30c-1.1045695 0-2-.8954305-2-2z" fill="#f29c1f"/><path id="Shape" d="m46 47-3-10h-28l-3 10" fill="#f0c419"/><path id="Shape" d="m1 33h56c.5522847 0 1 .4477153 1 1v1c0 1.1045695-.8954305 2-2 2h-54c-1.1045695 0-2-.8954305-2-2v-1c0-.5522847.44771525-1 1-1z" fill="#95a5a5"/><rect id="Rectangle-path" fill="#2fa8cc" height="4" rx="1" width="12" x="23" y="43"/></g></g></svg>