<?xml version="1.0" encoding="iso-8859-1"?>
<!-- Generator: Adobe Illustrator 19.0.0, SVG Export Plug-In . SVG Version: 6.00 Build 0)  -->
<svg version="1.1" id="Capa_1" xmlns="http://www.w3.org/2000/svg" xmlns:xlink="http://www.w3.org/1999/xlink" x="0px" y="0px"
	 viewBox="0 0 409.6 409.6" style="enable-background:new 0 0 409.6 409.6;" xml:space="preserve">
<path style="fill:#64798A;" d="M361.911,12.252c-105.44-16.337-208.792-16.334-314.221,0c-10.283,1.593-17.876,10.45-17.876,20.854
	c0.002,114.462,0.002,228.926,0,343.389c0,10.404,7.594,19.261,17.875,20.855c105.429,16.335,208.781,16.332,314.221-0.001
	c10.282-1.593,17.876-10.45,17.876-20.855c-0.003-114.463-0.003-228.925,0-343.388C379.786,22.702,372.192,13.845,361.911,12.252z"
	/>
<path style="fill:#EBF0F3;" d="M339.498,33.69H70.103c-5.484,0-9.929,4.445-9.929,9.928V288.85c0,5.482,4.445,9.928,9.929,9.928
	h269.396c5.482,0,9.927-4.446,9.927-9.928V43.617C349.426,38.134,344.98,33.69,339.498,33.69z"/>
<rect x="168.32" y="48.594" style="fill:#27A2DB;" width="166.221" height="235.295"/>
<path style="fill:#3EA69B;" d="M144.33,331.083H65.975c-3.204,0-5.801,2.597-5.801,5.801v33.222c0,3.206,2.598,5.803,5.801,5.803
	h78.354c3.206,0,5.804-2.598,5.804-5.803v-33.222C150.133,333.681,147.535,331.083,144.33,331.083z"/>
<path style="fill:#F6C358;" d="M243.977,331.083h-78.354c-3.204,0-5.802,2.597-5.802,5.801v33.222c0,3.206,2.598,5.803,5.802,5.803
	h78.354c3.205,0,5.802-2.598,5.802-5.803v-33.222C249.779,333.681,247.182,331.083,243.977,331.083z"/>
<path style="fill:#2D93BA;" d="M343.622,331.083H265.27c-3.206,0-5.804,2.597-5.804,5.801v33.222c0,3.206,2.597,5.803,5.804,5.803
	h78.352c3.206,0,5.804-2.598,5.804-5.803v-33.222C349.426,333.681,346.828,331.083,343.622,331.083z"/>
<path style="fill:#44C4A1;" d="M144.33,324.732H65.975c-3.204,0-5.801,2.598-5.801,5.802v33.222c0,3.205,2.598,5.804,5.801,5.804
	h78.354c3.206,0,5.804-2.598,5.804-5.804v-33.222C150.133,327.33,147.535,324.732,144.33,324.732z"/>
<path style="fill:#FCD462;" d="M243.977,324.732h-78.354c-3.204,0-5.802,2.598-5.802,5.802v33.222c0,3.205,2.598,5.804,5.802,5.804
	h78.354c3.205,0,5.802-2.598,5.802-5.804v-33.222C249.779,327.33,247.182,324.732,243.977,324.732z"/>
<path style="fill:#27A2DB;" d="M343.622,324.732H265.27c-3.206,0-5.804,2.598-5.804,5.802v33.222c0,3.205,2.597,5.804,5.804,5.804
	h78.352c3.206,0,5.804-2.598,5.804-5.804v-33.222C349.426,327.33,346.828,324.732,343.622,324.732z"/>
<g>
	<path style="fill:#64798A;" d="M88.506,85.579c-1.317,0-2.4,0.269-3.243,0.807c-0.844,0.538-1.266,1.345-1.266,2.436
		c0,1.083,0.422,1.913,1.266,2.487c0.843,0.582,2.639,1.2,5.389,1.862c2.749,0.669,4.822,1.6,6.211,2.801
		c1.397,1.2,2.095,2.974,2.095,5.316c0,2.335-0.88,4.233-2.647,5.695c-1.768,1.455-4.08,2.182-6.946,2.182
		c-4.189,0-7.913-1.44-11.156-4.335l2.836-3.411c2.713,2.35,5.528,3.528,8.437,3.528c1.461,0,2.618-0.313,3.476-0.938
		c0.85-0.626,1.279-1.455,1.279-2.495c0-1.033-0.4-1.84-1.207-2.415c-0.807-0.575-2.189-1.098-4.16-1.57
		c-1.971-0.473-3.462-0.909-4.487-1.31c-1.026-0.393-1.935-0.909-2.72-1.549c-1.586-1.201-2.379-3.04-2.379-5.52
		s0.902-4.393,2.698-5.738c1.804-1.338,4.037-2.015,6.698-2.015c1.709,0,3.411,0.284,5.098,0.844
		c1.688,0.567,3.142,1.36,4.371,2.378l-2.415,3.418c-0.792-0.719-1.869-1.308-3.222-1.767
		C91.154,85.812,89.823,85.579,88.506,85.579z"/>
	<path style="fill:#64798A;" d="M114.877,108.859h-4.603V98.277l-9.971-16.225h4.945l7.324,12.196l7.324-12.196h4.953l-9.971,16.225
		V108.859z"/>
	<path style="fill:#64798A;" d="M136.027,85.579c-1.317,0-2.4,0.269-3.244,0.807c-0.844,0.538-1.265,1.345-1.265,2.436
		c0,1.083,0.421,1.913,1.265,2.487c0.844,0.582,2.64,1.2,5.389,1.862c2.749,0.669,4.822,1.6,6.211,2.801
		c1.396,1.2,2.095,2.974,2.095,5.316c0,2.335-0.881,4.233-2.648,5.695c-1.767,1.455-4.08,2.182-6.945,2.182
		c-4.189,0-7.913-1.44-11.157-4.335l2.836-3.411c2.713,2.35,5.528,3.528,8.436,3.528c1.462,0,2.619-0.313,3.476-0.938
		c0.851-0.626,1.28-1.455,1.28-2.495c0-1.033-0.4-1.84-1.207-2.415c-0.807-0.575-2.19-1.098-4.16-1.57
		c-1.971-0.473-3.462-0.909-4.488-1.31c-1.025-0.393-1.934-0.909-2.72-1.549c-1.586-1.201-2.378-3.04-2.378-5.52
		s0.902-4.393,2.698-5.738c1.804-1.338,4.037-2.015,6.698-2.015c1.709,0,3.411,0.284,5.098,0.844
		c1.687,0.567,3.141,1.36,4.371,2.378l-2.415,3.418c-0.793-0.719-1.869-1.308-3.223-1.767
		C138.673,85.812,137.342,85.579,136.027,85.579z"/>
	<path style="fill:#64798A;" d="M101.314,152.583c2.582,2.342,3.876,5.6,3.876,9.768c0,4.167-1.258,7.461-3.76,9.89
		c-2.51,2.429-6.342,3.643-11.506,3.643H81.03v-26.807h9.2C95.037,149.077,98.732,150.249,101.314,152.583z M100.623,162.459
		c0-6.131-3.513-9.2-10.546-9.2h-4.524v18.371h5.025c3.244,0,5.731-0.778,7.455-2.321
		C99.764,167.761,100.623,165.477,100.623,162.459z"/>
	<path style="fill:#64798A;" d="M111.023,149.077h4.524v26.807h-4.524V149.077z"/>
	<path style="fill:#64798A;" d="M126.782,169.791l-2.691,6.094h-4.829l11.811-26.807h4.836l11.811,26.807h-4.836l-2.684-6.094
		H126.782z M138.36,165.609l-4.873-11.047l-4.865,11.047H138.36z"/>
	<path style="fill:#64798A;" d="M95.641,218.445c1.862,1.556,2.793,3.963,2.793,7.207c0,3.251-0.952,5.621-2.851,7.135
		c-1.906,1.505-4.829,2.262-8.764,2.262h-4.756v7.861h-4.524v-26.807h9.2C90.805,216.102,93.772,216.881,95.641,218.445z
		 M92.433,229.506c0.909-0.96,1.36-2.363,1.36-4.218c0-1.854-0.575-3.164-1.724-3.935c-1.149-0.763-2.953-1.149-5.404-1.149h-4.603
		v10.742h5.251C89.823,230.946,91.525,230.466,92.433,229.506z"/>
	<path style="fill:#64798A;" d="M109.786,236.772c1.23,1.433,2.895,2.153,4.989,2.153c2.095,0,3.76-0.72,4.982-2.153
		c1.229-1.433,1.847-3.375,1.847-5.826v-14.844h4.525v15.033c0,3.861-1.062,6.836-3.186,8.916c-2.123,2.087-4.844,3.127-8.167,3.127
		c-3.323,0-6.051-1.04-8.166-3.127c-2.124-2.08-3.186-5.055-3.186-8.916v-15.033h4.524v14.844
		C107.946,233.397,108.565,235.339,109.786,236.772z"/>
	<path style="fill:#64798A;" d="M133.227,242.91v-26.807h4.524v22.51h12.233v4.298H133.227z"/>
</g>
<g>
	<polygon style="fill:#FFFFFF;" points="204.211,94.513 201.561,96.817 204.211,99.122 223.253,99.122 225.903,96.817 
		223.253,94.513 	"/>
	<polygon style="fill:#FFFFFF;" points="188.387,76.27 185.869,73.845 183.351,76.27 183.351,93.695 185.869,96.12 188.387,93.695 	
		"/>
	<polygon style="fill:#FFFFFF;" points="188.387,117.365 185.869,119.79 183.351,117.365 183.351,99.939 185.869,97.515 
		188.387,99.939 	"/>
	<polygon style="fill:#FFFFFF;" points="204.211,69.672 201.561,71.977 204.211,74.281 223.253,74.281 225.903,71.977 
		223.253,69.672 	"/>
	<polygon style="fill:#FFFFFF;" points="229.415,76.27 226.897,73.845 224.379,76.27 224.379,93.695 226.897,96.12 229.415,93.695 	
		"/>
	<polygon style="fill:#FFFFFF;" points="204.211,123.963 201.561,121.658 204.211,119.353 223.253,119.353 225.903,121.658 
		223.253,123.963 	"/>
	<polygon style="fill:#FFFFFF;" points="203.498,117.365 200.98,119.79 198.462,117.365 198.462,99.939 200.98,97.515 
		203.498,99.939 	"/>
	<polygon style="fill:#FFFFFF;" points="245.239,94.513 242.589,96.817 245.239,99.122 264.281,99.122 266.93,96.817 
		264.281,94.513 	"/>
	<polygon style="fill:#FFFFFF;" points="245.239,69.672 242.589,71.977 245.239,74.281 264.281,74.281 266.93,71.977 
		264.281,69.672 	"/>
	<polygon style="fill:#FFFFFF;" points="270.444,76.27 267.925,73.845 265.407,76.27 265.407,93.695 267.925,96.12 270.444,93.695 	
		"/>
	<polygon style="fill:#FFFFFF;" points="244.527,76.27 242.009,73.845 239.49,76.27 239.49,93.695 242.009,96.12 244.527,93.695 	
		"/>
	<polygon style="fill:#FFFFFF;" points="245.239,123.963 242.589,121.658 245.239,119.353 264.281,119.353 266.93,121.658 
		264.281,123.963 	"/>
	<polygon style="fill:#FFFFFF;" points="270.444,117.365 267.925,119.79 265.407,117.365 265.407,99.939 267.925,97.515 
		270.444,99.939 	"/>
	<polygon style="fill:#FFFFFF;" points="244.527,117.365 242.009,119.79 239.49,117.365 239.49,99.939 242.009,97.515 
		244.527,99.939 	"/>
	<polygon style="fill:#FFFFFF;" points="204.211,160.76 201.561,163.065 204.211,165.369 223.253,165.369 225.903,163.065 
		223.253,160.76 	"/>
	<polygon style="fill:#FFFFFF;" points="204.211,135.919 201.561,138.224 204.211,140.529 223.253,140.529 225.903,138.224 
		223.253,135.919 	"/>
	<polygon style="fill:#FFFFFF;" points="229.415,142.517 226.897,140.092 224.379,142.517 224.379,159.942 226.897,162.367 
		229.415,159.942 	"/>
	<polygon style="fill:#FFFFFF;" points="203.498,142.517 200.98,140.092 198.462,142.517 198.462,159.942 200.98,162.367 
		203.498,159.942 	"/>
	<polygon style="fill:#FFFFFF;" points="204.211,190.21 201.561,187.906 204.211,185.601 223.253,185.601 225.903,187.906 
		223.253,190.21 	"/>
	<polygon style="fill:#FFFFFF;" points="229.415,183.612 226.897,186.037 224.379,183.612 224.379,166.187 226.897,163.762 
		229.415,166.187 	"/>
	<polygon style="fill:#FFFFFF;" points="203.498,183.612 200.98,186.037 198.462,183.612 198.462,166.187 200.98,163.762 
		203.498,166.187 	"/>
	<polygon style="fill:#FFFFFF;" points="245.239,135.919 242.589,138.224 245.239,140.529 264.281,140.529 266.93,138.224 
		264.281,135.919 	"/>
	<polygon style="fill:#FFFFFF;" points="270.444,142.517 267.925,140.092 265.407,142.517 265.407,159.942 267.925,162.367 
		270.444,159.942 	"/>
	<polygon style="fill:#FFFFFF;" points="244.527,142.517 242.009,140.092 239.49,142.517 239.49,159.942 242.009,162.367 
		244.527,159.942 	"/>
	<polygon style="fill:#FFFFFF;" points="245.239,190.21 242.589,187.906 245.239,185.601 264.281,185.601 266.93,187.906 
		264.281,190.21 	"/>
	<polygon style="fill:#FFFFFF;" points="270.444,183.612 267.925,186.037 265.407,183.612 265.407,166.187 267.925,163.762 
		270.444,166.187 	"/>
	<polygon style="fill:#FFFFFF;" points="244.527,183.612 242.009,186.037 239.49,183.612 239.49,166.187 242.009,163.762 
		244.527,166.187 	"/>
	<polygon style="fill:#FFFFFF;" points="204.211,227.008 201.561,229.312 204.211,231.616 223.253,231.616 225.903,229.312 
		223.253,227.008 	"/>
	<polygon style="fill:#FFFFFF;" points="188.387,208.764 185.869,206.339 183.351,208.764 183.351,226.189 185.869,228.614 
		188.387,226.189 	"/>
	<polygon style="fill:#FFFFFF;" points="188.387,249.86 185.869,252.284 183.351,249.86 183.351,232.434 185.869,230.01 
		188.387,232.434 	"/>
	<polygon style="fill:#FFFFFF;" points="204.211,202.166 201.561,204.471 204.211,206.776 223.253,206.776 225.903,204.471 
		223.253,202.166 	"/>
	<polygon style="fill:#FFFFFF;" points="203.498,208.764 200.98,206.339 198.462,208.764 198.462,226.189 200.98,228.614 
		203.498,226.189 	"/>
	<polygon style="fill:#FFFFFF;" points="204.211,256.457 201.561,254.153 204.211,251.848 223.253,251.848 225.903,254.153 
		223.253,256.457 	"/>
	<polygon style="fill:#FFFFFF;" points="245.239,256.457 242.589,254.153 245.239,251.848 264.281,251.848 266.93,254.153 
		264.281,256.457 	"/>
	<polygon style="fill:#FFFFFF;" points="229.415,249.86 226.897,252.284 224.379,249.86 224.379,232.434 226.897,230.01 
		229.415,232.434 	"/>
	<polygon style="fill:#FFFFFF;" points="203.498,249.86 200.98,252.284 198.462,249.86 198.462,232.434 200.98,230.01 
		203.498,232.434 	"/>
	<polygon style="fill:#FFFFFF;" points="245.239,227.008 242.589,229.312 245.239,231.616 264.281,231.616 266.93,229.312 
		264.281,227.008 	"/>
	<polygon style="fill:#FFFFFF;" points="245.239,202.166 242.589,204.471 245.239,206.776 264.281,206.776 266.93,204.471 
		264.281,202.166 	"/>
	<polygon style="fill:#FFFFFF;" points="244.527,208.764 242.009,206.339 239.49,208.764 239.49,226.189 242.009,228.614 
		244.527,226.189 	"/>
	<polygon style="fill:#FFFFFF;" points="270.444,249.86 267.925,252.284 265.407,249.86 265.407,232.434 267.925,230.01 
		270.444,232.434 	"/>
</g>
<g>
</g>
<g>
</g>
<g>
</g>
<g>
</g>
<g>
</g>
<g>
</g>
<g>
</g>
<g>
</g>
<g>
</g>
<g>
</g>
<g>
</g>
<g>
</g>
<g>
</g>
<g>
</g>
<g>
</g>
</svg>
